<svg width="48" height="48" viewBox="0 0 48 48" fill="none" xmlns="http://www.w3.org/2000/svg">
<g clip-path="url(#clip0_1122_21625)">
<path d="M19 11C19 12.3261 19.5268 13.5979 20.4645 14.5355C21.4021 15.4732 22.6739 16 24 16C25.3261 16 26.5979 15.4732 27.5355 14.5355C28.4732 13.5979 29 12.3261 29 11C29 9.67392 28.4732 8.40215 27.5355 7.46447C26.5979 6.52678 25.3261 6 24 6C22.6739 6 21.4021 6.52678 20.4645 7.46447C19.5268 8.40215 19 9.67392 19 11Z" stroke="#32CD99" stroke-width="4" stroke-linecap="round" stroke-linejoin="round"/>
<path d="M23.9999 42.7359L34.1899 32.5439C34.7695 31.9718 35.2302 31.2907 35.5455 30.5398C35.8608 29.7889 36.0245 28.983 36.0272 28.1686C36.0298 27.3542 35.8713 26.5474 35.5609 25.7944C35.2504 25.0415 34.7942 24.3574 34.2183 23.7816C33.6424 23.2057 32.9583 22.7494 32.2054 22.439C31.4525 22.1285 30.6456 21.9701 29.8312 21.9727C29.0168 21.9753 28.211 22.139 27.4601 22.4543C26.7092 22.7696 26.0281 23.2303 25.4559 23.8099L23.9999 25.2639L22.5439 23.8099C21.9718 23.2303 21.2907 22.7696 20.5398 22.4543C19.7889 22.139 18.983 21.9753 18.1686 21.9727C17.3542 21.9701 16.5474 22.1285 15.7944 22.439C15.0415 22.7494 14.3574 23.2057 13.7816 23.7816C13.2057 24.3574 12.7494 25.0415 12.439 25.7944C12.1285 26.5474 11.9701 27.3542 11.9727 28.1686C11.9753 28.983 12.139 29.7889 12.4543 30.5398C12.7696 31.2907 13.2303 31.9718 13.8099 32.5439L23.9999 42.7359Z" stroke="#32CD99" stroke-width="4" stroke-linecap="round" stroke-linejoin="round"/>
</g>
<defs>
<clipPath id="clip0_1122_21625">
<rect width="48" height="48" fill="white"/>
</clipPath>
</defs>
</svg>
