<svg width="48" height="48" viewBox="0 0 48 48" fill="none" xmlns="http://www.w3.org/2000/svg">
<g clip-path="url(#clip0_1122_21601)">
<path d="M12.8721 16C12.2895 17.7592 11.995 19.6009 12.0001 21.454C12.0001 29.488 17.3721 36 24.0001 36C30.6281 36 36.0001 29.488 36.0001 21.454C36.0051 19.6009 35.7106 17.7592 35.1281 16" stroke="#32CD99" stroke-width="4" stroke-linecap="round" stroke-linejoin="round"/>
<path d="M29 42C29 42 27.636 36 24 36C20.364 36 19 42 19 42" stroke="#32CD99" stroke-width="4" stroke-linecap="round" stroke-linejoin="round"/>
<path d="M37.0398 10.46C37.6238 13.792 34.9998 16 34.9998 16C34.9998 16 31.7938 14.874 31.2098 11.54C30.6258 8.208 33.2498 6 33.2498 6C33.2498 6 36.4558 7.126 37.0398 10.46Z" stroke="#32CD99" stroke-width="4" stroke-linecap="round" stroke-linejoin="round"/>
<path d="M42.1881 24.28C39.6261 26.812 36.1561 25.8 36.1561 25.8C36.1561 25.8 35.2481 22.256 37.8121 19.72C40.3721 17.188 43.8441 18.2 43.8441 18.2C43.8441 18.2 44.7521 21.744 42.1881 24.28Z" stroke="#32CD99" stroke-width="4" stroke-linecap="round" stroke-linejoin="round"/>
<path d="M35.468 37.6519C32.468 36.5019 32 33.2719 32 33.2719C32 33.2719 34.534 31.1959 37.534 32.3479C40.534 33.4979 41 36.7279 41 36.7279C41 36.7279 38.468 38.8039 35.468 37.6519Z" stroke="#32CD99" stroke-width="4" stroke-linecap="round" stroke-linejoin="round"/>
<path d="M12.534 37.6519C15.534 36.5019 16 33.2719 16 33.2719C16 33.2719 13.466 31.1959 10.466 32.3479C7.466 33.4979 7 36.7279 7 36.7279C7 36.7279 9.534 38.8039 12.534 37.6519Z" stroke="#32CD99" stroke-width="4" stroke-linecap="round" stroke-linejoin="round"/>
<path d="M5.81209 24.28C8.37409 26.812 11.8441 25.8 11.8441 25.8C11.8441 25.8 12.7521 22.256 10.1881 19.72C7.62609 17.19 4.15609 18.2 4.15609 18.2C4.15609 18.2 3.24809 21.744 5.81209 24.28Z" stroke="#32CD99" stroke-width="4" stroke-linecap="round" stroke-linejoin="round"/>
<path d="M10.9598 10.46C10.3758 13.792 12.9998 16 12.9998 16C12.9998 16 16.2058 14.874 16.7898 11.54C17.3738 8.208 14.7498 6 14.7498 6C14.7498 6 11.5438 7.126 10.9598 10.46Z" stroke="#32CD99" stroke-width="4" stroke-linecap="round" stroke-linejoin="round"/>
<path d="M22 18L24 16V28" stroke="#32CD99" stroke-width="4" stroke-linecap="round" stroke-linejoin="round"/>
</g>
<defs>
<clipPath id="clip0_1122_21601">
<rect width="48" height="48" fill="white"/>
</clipPath>
</defs>
</svg>
