<svg width="24" height="25" viewBox="0 0 24 25" fill="none" xmlns="http://www.w3.org/2000/svg">
<g clip-path="url(#clip0_1252_8324)">
<path d="M12 3.12285C15.2063 3.12285 15.5859 3.13691 16.8469 3.19316C18.0188 3.24473 18.6516 3.4416 19.0734 3.60566C19.6313 3.82129 20.0344 4.08379 20.4516 4.50098C20.8734 4.92285 21.1313 5.32129 21.3469 5.8791C21.5109 6.30098 21.7078 6.93848 21.7594 8.10566C21.8156 9.37129 21.8297 9.75098 21.8297 12.9525C21.8297 16.1588 21.8156 16.5385 21.7594 17.7994C21.7078 18.9713 21.5109 19.6041 21.3469 20.026C21.1313 20.5838 20.8687 20.9869 20.4516 21.4041C20.0297 21.826 19.6313 22.0838 19.0734 22.2994C18.6516 22.4635 18.0141 22.6604 16.8469 22.7119C15.5813 22.7682 15.2016 22.7822 12 22.7822C8.79375 22.7822 8.41406 22.7682 7.15313 22.7119C5.98125 22.6604 5.34844 22.4635 4.92656 22.2994C4.36875 22.0838 3.96563 21.8213 3.54844 21.4041C3.12656 20.9822 2.86875 20.5838 2.65313 20.026C2.48906 19.6041 2.29219 18.9666 2.24063 17.7994C2.18438 16.5338 2.17031 16.1541 2.17031 12.9525C2.17031 9.74629 2.18438 9.3666 2.24063 8.10566C2.29219 6.93379 2.48906 6.30098 2.65313 5.8791C2.86875 5.32129 3.13125 4.91816 3.54844 4.50098C3.97031 4.0791 4.36875 3.82129 4.92656 3.60566C5.34844 3.4416 5.98594 3.24473 7.15313 3.19316C8.41406 3.13691 8.79375 3.12285 12 3.12285ZM12 0.961914C8.74219 0.961914 8.33438 0.975977 7.05469 1.03223C5.77969 1.08848 4.90313 1.29473 4.14375 1.59004C3.35156 1.89941 2.68125 2.30723 2.01563 2.97754C1.34531 3.64316 0.9375 4.31348 0.628125 5.10098C0.332812 5.86504 0.126563 6.73691 0.0703125 8.01191C0.0140625 9.29629 0 9.7041 0 12.9619C0 16.2197 0.0140625 16.6275 0.0703125 17.9072C0.126563 19.1822 0.332812 20.0588 0.628125 20.8182C0.9375 21.6104 1.34531 22.2807 2.01563 22.9463C2.68125 23.6119 3.35156 24.0244 4.13906 24.3291C4.90313 24.6244 5.775 24.8307 7.05 24.8869C8.32969 24.9432 8.7375 24.9572 11.9953 24.9572C15.2531 24.9572 15.6609 24.9432 16.9406 24.8869C18.2156 24.8307 19.0922 24.6244 19.8516 24.3291C20.6391 24.0244 21.3094 23.6119 21.975 22.9463C22.6406 22.2807 23.0531 21.6104 23.3578 20.8229C23.6531 20.0588 23.8594 19.1869 23.9156 17.9119C23.9719 16.6322 23.9859 16.2244 23.9859 12.9666C23.9859 9.70879 23.9719 9.30098 23.9156 8.02129C23.8594 6.74629 23.6531 5.86973 23.3578 5.11035C23.0625 4.31348 22.6547 3.64316 21.9844 2.97754C21.3188 2.31191 20.6484 1.89941 19.8609 1.59473C19.0969 1.29941 18.225 1.09316 16.95 1.03691C15.6656 0.975977 15.2578 0.961914 12 0.961914Z" fill="#121213"/>
<path d="M12 6.79785C8.59688 6.79785 5.83594 9.55879 5.83594 12.9619C5.83594 16.365 8.59688 19.126 12 19.126C15.4031 19.126 18.1641 16.365 18.1641 12.9619C18.1641 9.55879 15.4031 6.79785 12 6.79785ZM12 16.9604C9.79219 16.9604 8.00156 15.1697 8.00156 12.9619C8.00156 10.7541 9.79219 8.96348 12 8.96348C14.2078 8.96348 15.9984 10.7541 15.9984 12.9619C15.9984 15.1697 14.2078 16.9604 12 16.9604Z" fill="#121213"/>
<path d="M19.8469 6.5543C19.8469 7.35117 19.2 7.99336 18.4078 7.99336C17.6109 7.99336 16.9688 7.34649 16.9688 6.5543C16.9688 5.75742 17.6156 5.11523 18.4078 5.11523C19.2 5.11523 19.8469 5.76211 19.8469 6.5543Z" fill="#121213"/>
</g>
<defs>
<clipPath id="clip0_1252_8324">
<rect width="24" height="24" fill="white" transform="translate(0 0.961914)"/>
</clipPath>
</defs>
</svg>
