<svg width="24" height="25" viewBox="0 0 24 25" fill="none" xmlns="http://www.w3.org/2000/svg">
<g clip-path="url(#clip0_1252_8322)">
<path d="M22.2234 0.961914H1.77187C0.792187 0.961914 0 1.73535 0 2.6916V23.2275C0 24.1838 0.792187 24.9619 1.77187 24.9619H22.2234C23.2031 24.9619 24 24.1838 24 23.2322V2.6916C24 1.73535 23.2031 0.961914 22.2234 0.961914ZM7.12031 21.4135H3.55781V9.95723H7.12031V21.4135ZM5.33906 8.39629C4.19531 8.39629 3.27188 7.47285 3.27188 6.33379C3.27188 5.19473 4.19531 4.27129 5.33906 4.27129C6.47813 4.27129 7.40156 5.19473 7.40156 6.33379C7.40156 7.46816 6.47813 8.39629 5.33906 8.39629ZM20.4516 21.4135H16.8937V15.8447C16.8937 14.5182 16.8703 12.8072 15.0422 12.8072C13.1906 12.8072 12.9094 14.2557 12.9094 15.751V21.4135H9.35625V9.95723H12.7687V11.5229H12.8156C13.2891 10.6229 14.4516 9.67129 16.1813 9.67129C19.7859 9.67129 20.4516 12.0432 20.4516 15.1275V21.4135Z" fill="#121213"/>
</g>
<defs>
<clipPath id="clip0_1252_8322">
<rect width="24" height="24" fill="white" transform="translate(0 0.961914)"/>
</clipPath>
</defs>
</svg>
