<svg width="24" height="25" viewBox="0 0 24 25" fill="none" xmlns="http://www.w3.org/2000/svg">
<g clip-path="url(#clip0_1252_8321)">
<path fill-rule="evenodd" clip-rule="evenodd" d="M24 12.9619C24 19.5893 18.6274 24.9619 12 24.9619C5.37258 24.9619 0 19.5893 0 12.9619C0 6.3345 5.37258 0.961914 12 0.961914C18.6274 0.961914 24 6.3345 24 12.9619ZM12.43 9.82084C11.2628 10.3063 8.93014 11.3111 5.43189 12.8352C4.86383 13.0611 4.56626 13.2821 4.53917 13.4982C4.49339 13.8634 4.95071 14.0072 5.57347 14.203C5.65818 14.2297 5.74595 14.2573 5.83594 14.2865C6.44864 14.4857 7.27283 14.7187 7.70129 14.7279C8.08994 14.7363 8.52373 14.5761 9.00264 14.2473C12.2712 12.0409 13.9584 10.9257 14.0643 10.9017C14.139 10.8847 14.2426 10.8634 14.3128 10.9258C14.3829 10.9881 14.376 11.1062 14.3686 11.1379C14.3233 11.3311 12.5281 13 11.5991 13.8637C11.3095 14.1329 11.1041 14.3239 11.0621 14.3675C10.968 14.4653 10.8721 14.5577 10.78 14.6465C10.2108 15.1952 9.78391 15.6067 10.8036 16.2787C11.2936 16.6016 11.6858 16.8687 12.077 17.1351C12.5042 17.426 12.9303 17.7162 13.4816 18.0776C13.6221 18.1697 13.7562 18.2653 13.8869 18.3584C14.3841 18.7129 14.8307 19.0313 15.3826 18.9805C15.7032 18.951 16.0345 18.6495 16.2027 17.7503C16.6002 15.6251 17.3816 11.0204 17.5622 9.12289C17.578 8.95664 17.5581 8.74388 17.5422 8.65049C17.5262 8.55709 17.4928 8.42402 17.3714 8.32551C17.2276 8.20885 17.0056 8.18425 16.9064 8.186C16.455 8.19395 15.7626 8.43473 12.43 9.82084Z" fill="#121213"/>
</g>
<defs>
<clipPath id="clip0_1252_8321">
<rect width="24" height="24" fill="white" transform="translate(0 0.961914)"/>
</clipPath>
</defs>
</svg>
