<svg width="24" height="25" viewBox="0 0 24 25" fill="none" xmlns="http://www.w3.org/2000/svg">
<path d="M0 24.9619L1.687 18.7989C0.645998 16.9949 0.0989998 14.9499 0.0999998 12.8529C0.103 6.29691 5.43799 0.961914 11.993 0.961914C15.174 0.962914 18.16 2.20191 20.406 4.44991C22.6509 6.69791 23.8869 9.68591 23.8859 12.8639C23.8829 19.4209 18.548 24.7559 11.993 24.7559C10.003 24.7549 8.04198 24.2559 6.30499 23.3079L0 24.9619ZM6.59698 21.1549C8.27298 22.1499 9.87298 22.7459 11.989 22.7469C17.437 22.7469 21.875 18.3129 21.878 12.8619C21.88 7.39991 17.463 2.97191 11.997 2.96991C6.54498 2.96991 2.11 7.40391 2.108 12.8539C2.107 15.0789 2.75899 16.7449 3.85399 18.4879L2.85499 22.1359L6.59698 21.1549ZM17.984 15.6909C17.91 15.5669 17.712 15.4929 17.414 15.3439C17.117 15.1949 15.656 14.4759 15.383 14.3769C15.111 14.2779 14.913 14.2279 14.714 14.5259C14.516 14.8229 13.946 15.4929 13.773 15.6909C13.6 15.8889 13.426 15.9139 13.129 15.7649C12.832 15.6159 11.874 15.3029 10.739 14.2899C9.85598 13.5019 9.25898 12.5289 9.08598 12.2309C8.91298 11.9339 9.06798 11.7729 9.21598 11.6249C9.34998 11.4919 9.51298 11.2779 9.66198 11.1039C9.81298 10.9319 9.86198 10.8079 9.96198 10.6089C10.061 10.4109 10.012 10.2369 9.93698 10.0879C9.86198 9.93991 9.26798 8.47691 9.02098 7.88191C8.77898 7.30291 8.53398 7.38091 8.35198 7.37191L7.78198 7.36191C7.58398 7.36191 7.26198 7.43591 6.98998 7.73391C6.71798 8.03191 5.94999 8.74991 5.94999 10.2129C5.94999 11.6759 7.01498 13.0889 7.16298 13.2869C7.31198 13.4849 9.25798 16.4869 12.239 17.7739C12.948 18.0799 13.502 18.2629 13.933 18.3999C14.645 18.6259 15.293 18.5939 15.805 18.5179C16.376 18.4329 17.563 17.7989 17.811 17.1049C18.059 16.4099 18.059 15.8149 17.984 15.6909Z" fill="#121213"/>
</svg>
