<svg width="24" height="25" viewBox="0 0 24 25" fill="none" xmlns="http://www.w3.org/2000/svg">
<path d="M23.7609 8.16172C23.7609 8.16172 23.5266 6.50703 22.8047 5.78047C21.8906 4.82422 20.8688 4.81953 20.4 4.76328C17.0438 4.51953 12.0047 4.51953 12.0047 4.51953H11.9953C11.9953 4.51953 6.95625 4.51953 3.6 4.76328C3.13125 4.81953 2.10938 4.82422 1.19531 5.78047C0.473438 6.50703 0.24375 8.16172 0.24375 8.16172C0.24375 8.16172 0 10.107 0 12.0477V13.8664C0 15.807 0.239062 17.7523 0.239062 17.7523C0.239062 17.7523 0.473437 19.407 1.19062 20.1336C2.10469 21.0898 3.30469 21.057 3.83906 21.1602C5.76094 21.343 12 21.3992 12 21.3992C12 21.3992 17.0438 21.3898 20.4 21.1508C20.8688 21.0945 21.8906 21.0898 22.8047 20.1336C23.5266 19.407 23.7609 17.7523 23.7609 17.7523C23.7609 17.7523 24 15.8117 24 13.8664V12.0477C24 10.107 23.7609 8.16172 23.7609 8.16172ZM9.52031 16.0742V9.32891L16.0031 12.7133L9.52031 16.0742Z" fill="#121213"/>
</svg>
