<svg width="32" height="32" viewBox="0 0 32 32" fill="none" xmlns="http://www.w3.org/2000/svg">
<path d="M4.00033 27.9999C8.00033 27.9999 13.3337 26.6665 13.3337 17.3332V6.66655C13.3337 4.99988 12.3257 3.97721 10.667 3.99988H5.33366C3.66699 3.99988 2.66699 4.99988 2.66699 6.62921V14.6665C2.66699 16.3332 3.66699 17.3332 5.33366 17.3332C6.66699 17.3332 6.66699 17.3332 6.66699 18.6665V19.9999C6.66699 21.3332 5.33366 22.6665 4.00033 22.6665C2.66699 22.6665 2.66699 22.6772 2.66699 24.0412V26.6665C2.66699 27.9999 2.66699 27.9999 4.00033 27.9999Z" stroke="#32CD99" stroke-width="2.66667" stroke-linecap="round" stroke-linejoin="round"/>
<path d="M20.0003 27.9999C24.0003 27.9999 29.3337 26.6665 29.3337 17.3332V6.66655C29.3337 4.99988 28.3243 3.97721 26.667 3.99988H21.3337C19.667 3.99988 18.667 4.99988 18.667 6.62921V14.6665C18.667 16.3332 19.667 17.3332 21.3337 17.3332H22.3337C22.3337 20.3332 22.667 22.6665 18.667 22.6665V26.6665C18.667 27.9999 18.667 27.9999 20.0003 27.9999Z" stroke="#32CD99" stroke-width="2.66667" stroke-linecap="round" stroke-linejoin="round"/>
</svg>
