<svg width="92" height="40" viewBox="0 0 92 40" fill="none" xmlns="http://www.w3.org/2000/svg">
<path fill-rule="evenodd" clip-rule="evenodd" d="M61.0611 8.85392L58.5508 11.1568L51.3776 17.715H45.5703L54.4314 9.61201C54.6459 9.41176 54.7675 9.15426 54.7675 8.86104C54.7675 8.56781 54.6459 8.31035 54.4314 8.10295L45.5703 0H51.3776L58.5508 6.55818L61.0611 8.85392Z" fill="#32CD99"/>
<path d="M54.168 2.23134V0.00714111L45.8504 0.00714111V2.23134L54.168 2.23134Z" fill="#121213"/>
<path d="M53.959 17.7865V15.5623H45.8488V17.7865H53.959Z" fill="#121213"/>
<path d="M40.5078 10.0126V7.78125L27.1769 7.78125V10.0126H40.5078Z" fill="#121213"/>
<path fill-rule="evenodd" clip-rule="evenodd" d="M24.9514 14.1248V3.65455C24.9514 2.86786 25.5951 2.2242 26.3818 2.2242H40.5209V0H22.7344V17.7865H40.5423V15.5551H26.3889C25.6022 15.5551 24.9586 14.9115 24.9586 14.1248H24.9514Z" fill="#121213"/>
<path fill-rule="evenodd" clip-rule="evenodd" d="M20.5185 29.9803L4.16953 29.9946C3.37568 29.9946 2.73917 29.3581 2.73917 28.5643V25.8824C2.73917 25.0957 3.38283 24.452 4.16953 24.452H20.5114V22.2206H4.08371C2.10981 22.2206 0.507812 23.8226 0.507812 25.7965V32.226H16.864C17.6507 32.226 18.2943 32.8696 18.2943 33.6563V36.3383C18.2943 37.125 17.6507 37.7686 16.864 37.7686H0.52213V40H16.9426C18.9165 40 20.5185 38.398 20.5185 36.4241V29.9803Z" fill="#121213"/>
<path d="M22.727 39.9784H24.9512L24.9512 22.2277H22.727L22.727 39.9784Z" fill="#121213"/>
<path d="M44.9418 39.9784H47.166V22.2277H44.9418V39.9784Z" fill="#121213"/>
<path fill-rule="evenodd" clip-rule="evenodd" d="M51.613 36.324V22.2278H49.3887V39.9786H69.378V37.7544H53.0362C52.2495 37.7544 51.6058 37.1107 51.6058 36.324H51.613Z" fill="#121213"/>
<path fill-rule="evenodd" clip-rule="evenodd" d="M73.8277 36.324V22.2278H71.6035V39.9786H91.5927V37.7544H75.2509C74.4642 37.7544 73.8206 37.1107 73.8206 36.324H73.8277Z" fill="#121213"/>
<path d="M73.8345 0.00714111H70.5232L63.4286 6.50098C62.8851 7.0016 62.0412 7.0016 61.4977 6.50098L54.4031 0.00714111H51.0918L59.6526 7.83836C60.2748 8.40335 60.2748 9.38316 59.6526 9.94815L51.0918 17.7794H54.4031L61.4977 11.2927C62.0412 10.7921 62.8851 10.7921 63.4286 11.2927L70.5232 17.7794H73.8345L65.2739 9.94815C64.6516 9.38316 64.6516 8.40335 65.2739 7.83836L73.8345 0.00714111Z" fill="#121213"/>
<path d="M54.096 7.38068L46.0287 0.00714111H42.7246L51.2924 7.83836C51.9146 8.40335 51.9146 9.38316 51.2924 9.94815L42.7246 17.7722H46.0359L54.096 10.3987L55.748 8.8897L54.096 7.37352V7.38068Z" fill="#121213"/>
<path d="M42.7233 22.2278H39.412L31.3376 29.6085C31.073 29.8517 30.7298 29.9804 30.3722 29.9804H23.9785V32.2118H30.3507C30.7083 32.2118 31.0516 32.3477 31.3163 32.5837L39.4192 39.9929H42.7233L33.6978 31.7398C33.3259 31.3965 33.3259 30.81 33.6978 30.4739L42.7233 22.2278Z" fill="#121213"/>
<path fill-rule="evenodd" clip-rule="evenodd" d="M91.6067 0.00714111H71.3457V2.22422H79.0767C79.8634 2.22422 80.5071 2.86788 80.5071 3.65458V17.7865H82.7242V3.65458C82.7242 2.86788 83.3679 2.22422 84.1546 2.22422H91.6139V0.00714111H91.6067Z" fill="#121213"/>
<path fill-rule="evenodd" clip-rule="evenodd" d="M18.2793 0.00714111V14.4752C18.2793 15.0688 17.8002 15.548 17.2066 15.548C16.8561 15.548 16.5343 15.3764 16.3269 15.0974L7.2227 2.23854L5.64218 0.00714111H0.5V2.23138H0.507159V17.7865H2.73135V3.31131C2.73135 2.71771 3.21053 2.23854 3.80412 2.23854H3.93289C4.28333 2.23854 4.60515 2.41014 4.81255 2.68906L13.9168 15.5623L15.4974 17.7937H18.2293H18.2793H20.5108V0.0214587H18.2793V0.00714111Z" fill="#121213"/>
<path d="M20.5114 22.9215H18.2871V26.29H20.5114V22.9215Z" fill="#121213"/>
<path d="M2.73787 35.9879H0.513672V39.3563H2.73787V35.9879Z" fill="#121213"/>
</svg>
