<svg width="21" height="15" viewBox="0 0 21 15" fill="none" xmlns="http://www.w3.org/2000/svg">
<path d="M1.25281 12.9997H19.7528C20.167 12.9997 20.5028 13.3355 20.5028 13.7497C20.5028 14.1294 20.2207 14.4432 19.8546 14.4928L19.7528 14.4997H1.25281C0.838599 14.4997 0.502812 14.1639 0.502812 13.7497C0.502812 13.37 0.784966 13.0562 1.15104 13.0065L1.25281 12.9997H19.7528H1.25281ZM1.25281 6.5027H19.7528C20.167 6.5027 20.5028 6.83848 20.5028 7.2527C20.5028 7.63239 20.2207 7.94619 19.8546 7.99585L19.7528 8.0027H1.25281C0.838599 8.0027 0.502812 7.66691 0.502812 7.2527C0.502812 6.873 0.784966 6.55921 1.15104 6.50954L1.25281 6.5027H19.7528H1.25281ZM1.25195 0.00292969H19.752C20.1662 0.00292969 20.502 0.338716 20.502 0.75293C20.502 1.13263 20.2198 1.44642 19.8537 1.49608L19.752 1.50293H1.25195C0.83774 1.50293 0.501953 1.16714 0.501953 0.75293C0.501953 0.373234 0.784107 0.0594385 1.15018 0.00977612L1.25195 0.00292969H19.752H1.25195Z" fill="#121213"/>
</svg>
