<svg width="32" height="33" viewBox="0 0 32 33" fill="none" xmlns="http://www.w3.org/2000/svg">
<path d="M3.99935 28.497C7.99935 28.497 13.3327 27.1636 13.3327 17.8303V7.16362C13.3327 5.49695 12.3247 4.47428 10.666 4.49695H5.33268C3.66602 4.49695 2.66602 5.49695 2.66602 7.12628V15.1636C2.66602 16.8303 3.66602 17.8303 5.33268 17.8303C6.66602 17.8303 6.66602 17.8303 6.66602 19.1636V20.497C6.66602 21.8303 5.33268 23.1636 3.99935 23.1636C2.66602 23.1636 2.66602 23.1743 2.66602 24.5383V27.1636C2.66602 28.497 2.66602 28.497 3.99935 28.497Z" stroke="#32CD99" stroke-width="2.66667" stroke-linecap="round" stroke-linejoin="round"/>
<path d="M19.9993 28.497C23.9993 28.497 29.3327 27.1636 29.3327 17.8303V7.16362C29.3327 5.49695 28.3233 4.47428 26.666 4.49695H21.3327C19.666 4.49695 18.666 5.49695 18.666 7.12628V15.1636C18.666 16.8303 19.666 17.8303 21.3327 17.8303H22.3327C22.3327 20.8303 22.666 23.1636 18.666 23.1636V27.1636C18.666 28.497 18.666 28.497 19.9993 28.497Z" stroke="#32CD99" stroke-width="2.66667" stroke-linecap="round" stroke-linejoin="round"/>
</svg>
